<svg xmlns="http://www.w3.org/2000/svg" xmlns:xlink="http://www.w3.org/1999/xlink" width="820" height="350" viewBox="0 0 820 350"><defs><linearGradient id="a" x1="1.054" y1="0.5" x2="0.004" y2="0.5" gradientUnits="objectBoundingBox"><stop offset="0" stop-color="#25344c"/><stop offset="1" stop-color="#178690"/></linearGradient><clipPath id="c"><rect width="820" height="350"/></clipPath></defs><g id="b" clip-path="url(#c)"><g transform="translate(20 30)"><g transform="translate(216 1)"><path d="M22.366.821q4.259,0,4.26,11.732V143.42L71.189,11.744Q74.792.821,78.234.821H97.895q2.784,0,2.785,4.045a19.758,19.758,0,0,1-1.31,7.08L53.659,141.4q-.822,5.058-.82,5.865a13.893,13.893,0,0,0,.656,4.652l48.5,127.632a24.113,24.113,0,0,1,1.966,8.293q0,3.845-2.13,3.843H83.477a4.828,4.828,0,0,1-3.85-2.326,37.61,37.61,0,0,1-4.014-8.6L26.626,151.915V280.558q0,11.127-4.26,11.125H4.18q-3.931,0-3.932-11.731V12.553Q.248.825,4.18.821Zm151.385,0q5.9,0,10.24.3a77.508,77.508,0,0,1,9.831,1.416,40.915,40.915,0,0,1,9.5,3.033,49.743,49.743,0,0,1,8.52,5.361,34.37,34.37,0,0,1,7.7,8.191A71.4,71.4,0,0,1,225.77,31.06a88.165,88.165,0,0,1,4.915,16.182,194.235,194.235,0,0,1,3.031,21.035q1.145,12.038,1.147,26.4a270.689,270.689,0,0,1-1.638,31.452,155.721,155.721,0,0,1-4.342,23.463,64.25,64.25,0,0,1-6.963,16.486A49.939,49.939,0,0,1,213.154,177a32.254,32.254,0,0,1-10.567,6.27A53.7,53.7,0,0,1,191.2,186.2a93.182,93.182,0,0,1-12.205.708H153.927q-1.475,0-1.474,3.438v91.426q0,9.912-4.1,9.911h-18.35q-3.932,0-3.932-9.911V10.125q0-5.863.983-7.584a3.192,3.192,0,0,1,2.949-1.72Zm120.093,0q5.078,0,6.718,10.114l31.292,204.9c.108.676.382,1.012.82,1.012s.709-.336.819-1.012L364.622,11.946Q366.589.824,371.012.821h21.135q3.766,0,3.768,12.136l7.537,266.995v1.213q0,10.52-3.932,10.518H385.757q-3.932,0-4.1-11.731L376.418,58.468a1.056,1.056,0,0,0-.982-.607l-32.768,222.9q-1.639,10.725-5.9,10.721h-.046q-.428.007-4.3.1c-2.785.071-4.234.1-4.342.1q-4.1,0-5.734-10.923L290.24,59.277q-.165-.807-.491,0a2.674,2.674,0,0,0-.165,1.011l-5.57,219.664q0,11.733-3.6,11.731H266.32q-3.771,0-3.769-10.518v-1.213L269.76,12.957q0-12.136,3.768-12.136ZM487.5.821q5.9,0,10.24.3a77.469,77.469,0,0,1,9.83,1.416,40.924,40.924,0,0,1,9.5,3.033,49.739,49.739,0,0,1,8.519,5.361,34.349,34.349,0,0,1,7.7,8.191,71.47,71.47,0,0,1,6.227,11.934,88.163,88.163,0,0,1,4.915,16.182,194.5,194.5,0,0,1,3.031,21.035q1.145,12.038,1.146,26.4a270.7,270.7,0,0,1-1.638,31.452,155.466,155.466,0,0,1-4.342,23.463,64.25,64.25,0,0,1-6.963,16.486A49.909,49.909,0,0,1,526.9,177a32.259,32.259,0,0,1-10.568,6.27,53.707,53.707,0,0,1-11.386,2.933,93.187,93.187,0,0,1-12.206.708H467.676q-1.475,0-1.475,3.438v91.426q0,9.912-4.1,9.911h-18.35q-3.932,0-3.932-9.911V10.125q0-5.863.984-7.584a3.191,3.191,0,0,1,2.948-1.72ZM172.6,26.711H153.927q-1.475,0-1.474,3.439V157.58q0,3.237,1.31,3.235h22.446a47.978,47.978,0,0,0,12.452-1.315,22.215,22.215,0,0,0,8.929-5.056q4.178-3.739,6.307-11.125a113.746,113.746,0,0,0,3.359-19.114,289.5,289.5,0,0,0,1.229-29.329A227.657,227.657,0,0,0,206.6,62.917q-1.886-12.94-4.587-20.024a23.118,23.118,0,0,0-7.865-10.822,24.246,24.246,0,0,0-9.584-4.55A69.756,69.756,0,0,0,172.6,26.711Zm313.749,0H467.676q-1.475,0-1.475,3.439V157.58q0,3.237,1.311,3.235h22.446a47.975,47.975,0,0,0,12.451-1.315,22.215,22.215,0,0,0,8.929-5.056q4.179-3.739,6.308-11.125a113.847,113.847,0,0,0,3.359-19.114,289.81,289.81,0,0,0,1.229-29.329,227.652,227.652,0,0,0-1.884-31.959q-1.885-12.94-4.588-20.024A23.116,23.116,0,0,0,507.9,32.071a24.243,24.243,0,0,0-9.585-4.55A69.742,69.742,0,0,0,486.354,26.711Z" transform="translate(-0.248 -0.821)" fill="#25344c" fill-rule="evenodd"/></g><path d="M4.79,163.785c0-32.432,8.363-90.5,40.694-126.841,13.26-14.9,53.885-45.623,93.289-25.556,63.182,32.174,45.378,87.231,18.456,116.246-15.578,16.792-25.362,38.39-9.163,62.4s38.713,67.6-8.91,94.326C100.6,306,62.549,289.578,49.289,274.677,16.957,238.337,4.79,196.145,4.79,163.785Z" transform="translate(-4.79 -4.79)" stroke="#fffffe" stroke-width="4" fill-rule="evenodd" fill="url(#a)"/><path d="M139.923,166.7c-9.97-1.2-33.229-3.106-67.973-9.153A526.871,526.871,0,0,1,4.79,140.91M145.9,187.246c-5.533,5.425-13.267,8.462-26.413,13.28-45.389,16.646-90.105,9.468-109.916.011M20.337,78.5c21.919.174,47.412,5.047,69.641,16.066C121.927,110.4,138.4,126.283,145.9,142.539M62.734,22.39c22.335,3.729,45.172,12.7,64.509,30.459,24.884,22.859,37.558,40.616,41.381,59.482m-5.979,104.939c-4.61,8.591-13.389,17.122-27.969,25.191C95.072,264.375,55.367,262.124,32.3,252.5M149.531,277.03c-33.717-37.98-40.175-79.887-38.812-119.28,1.395-40.177,32.152-80.756,62.689-116.71M116.32,293.578C83.676,248.22,69.889,200.137,70.292,161.346c.384-36.808,27.664-98.038,75.61-144.473M114.81,4.79C54.935,48.849,28.694,111.129,28.7,164.025,28.7,202.076,47.4,247.7,80.343,292.37" transform="translate(-4.79 -4.79)" fill="none" stroke="#fffffe" stroke-width="5.2" fill-rule="evenodd"/></g></g></svg>